<xml version="1.0" encoding="UTF-8"?>
<svg version="1.1" xmlns="http://www.w3.org/2000/svg" width="512" height="320">
<path d="M0 0 C168.96 0 337.92 0 512 0 C512 105.6 512 211.2 512 320 C343.04 320 174.08 320 0 320 C0 214.4 0 108.8 0 0 Z " fill="#F5F5F5" transform="translate(0,0)"/>
<path d="M0 0 C1.26293129 -0.00945648 1.26293129 -0.00945648 2.55137634 -0.019104 C3.46069412 -0.01505554 4.3700119 -0.01100708 5.30688477 -0.00683594 C6.72276634 -0.00970612 6.72276634 -0.00970612 8.16725159 -0.01263428 C10.17042303 -0.01399648 12.17360329 -0.0102976 14.17675781 -0.00195312 C17.20536872 0.00863895 20.2333718 -0.00179133 23.26196289 -0.01464844 C54.78260699 -0.03827515 54.78260699 -0.03827515 64.13891602 8.34472656 C70.88931638 15.65361328 72.47908117 21.42246655 72.18188477 31.33300781 C71.22323083 41.47455735 66.3719472 49.57467384 58.81079102 56.25878906 C48.0468383 64.3725949 34.36758745 67.98768182 21.03735352 68.45800781 C20.18794189 68.48934814 19.33853027 68.52068848 18.46337891 68.55297852 C16.76253834 68.60604461 15.06098792 68.64033671 13.359375 68.65405273 C9.88063085 68.74970664 7.46317423 68.89188959 4.40063477 70.61425781 C1.86332007 74.83480339 1.21406737 79.39646538 0.31079102 84.19628906 C-1.96542092 96.24451429 -1.96542092 96.24451429 -6.18920898 100.25878906 C-9.71479131 102.02158023 -13.74316489 101.48592788 -17.62670898 101.50878906 C-18.49875977 101.52941406 -19.37081055 101.55003906 -20.26928711 101.57128906 C-21.10782227 101.57644531 -21.94635742 101.58160156 -22.81030273 101.58691406 C-23.57785889 101.59625977 -24.34541504 101.60560547 -25.13623047 101.61523438 C-27.75052571 101.16133129 -28.64277967 100.39046242 -30.18920898 98.25878906 C-30.01159291 91.19643572 -27.79849021 84.33412404 -26.0380249 77.52368164 C-23.18588109 66.47604687 -20.48762766 55.40946336 -18.06420898 44.25878906 C-16.14080049 35.43601272 -14.11806847 26.64726065 -11.93920898 17.88378906 C-11.69283691 16.88476562 -11.44646484 15.88574219 -11.19262695 14.85644531 C-10.95946777 13.92960937 -10.72630859 13.00277344 -10.48608398 12.04785156 C-10.28337891 11.24041504 -10.08067383 10.43297852 -9.87182617 9.60107422 C-8.14861275 3.6881595 -6.77108237 0.0145832 0 0 Z " fill="#3270C5" transform="translate(308.189208984375,106.7412109375)"/>
<path d="M0 0 C1.02654694 -0.0038269 2.05309387 -0.00765381 3.11074829 -0.01159668 C5.28787208 -0.01431924 7.4650284 -0.00693406 9.64208984 0.00976562 C12.93013311 0.03095085 16.21593599 0.01008931 19.50390625 -0.015625 C33.90503378 -0.03500538 49.39536494 0.06105271 60.6015625 10.53125 C66.04440317 16.29501288 66.34817229 23.15806428 66.26196289 30.72119141 C65.7617967 40.74323252 61.44021838 48.93464114 54.0625 55.71875 C39.97369044 66.09527006 24.24500602 68.51665718 7.22851562 69.04882812 C6.41705078 69.08298828 5.60558594 69.11714844 4.76953125 69.15234375 C3.67547974 69.18992798 3.67547974 69.18992798 2.55932617 69.22827148 C0.28243144 69.44000373 0.28243144 69.44000373 -2.3984375 71.53125 C-3.33554666 73.9612141 -3.33554666 73.9612141 -3.93359375 76.8359375 C-4.18560547 77.89425781 -4.43761719 78.95257813 -4.69726562 80.04296875 C-5.0752832 81.70779297 -5.0752832 81.70779297 -5.4609375 83.40625 C-5.96842041 85.59213357 -6.47998056 87.77707554 -6.99609375 89.9609375 C-7.21789307 90.93272949 -7.43969238 91.90452148 -7.66821289 92.90576172 C-9.30828314 98.80255724 -9.30828314 98.80255724 -12.24365234 100.76464844 C-14.58887639 101.59900188 -16.39047651 101.78952279 -18.875 101.796875 C-19.7103125 101.79945313 -20.545625 101.80203125 -21.40625 101.8046875 C-22.70175781 101.79308594 -22.70175781 101.79308594 -24.0234375 101.78125 C-25.33054687 101.79285156 -25.33054687 101.79285156 -26.6640625 101.8046875 C-27.49679688 101.80210937 -28.32953125 101.79953125 -29.1875 101.796875 C-29.94756348 101.79461914 -30.70762695 101.79236328 -31.49072266 101.79003906 C-33.3984375 101.53125 -33.3984375 101.53125 -35.3984375 99.53125 C-35.79226065 91.0364394 -33.40282479 82.62833199 -31.24725342 74.49438477 C-30.31666817 70.97961712 -29.41922524 67.45637225 -28.51953125 63.93359375 C-28.33747131 63.22335052 -28.15541138 62.5131073 -27.96783447 61.78134155 C-26.25617493 55.06304416 -24.74312073 48.30638543 -23.2734375 41.53125 C-21.33645505 32.70364764 -19.37500755 23.88382993 -17.2734375 15.09375 C-17.04382324 14.08634766 -16.81420898 13.07894531 -16.57763672 12.04101562 C-16.35092285 11.11095703 -16.12420898 10.18089844 -15.890625 9.22265625 C-15.69839355 8.40998291 -15.50616211 7.59730957 -15.30810547 6.76000977 C-12.29290761 -0.62746777 -7.06740923 -0.05807345 0 0 Z " fill="#285798" transform="translate(66.3984375,106.46875)"/>
<path d="M0 0 C1.14210937 -0.020625 2.28421875 -0.04125 3.4609375 -0.0625 C14.25911968 -0.11158265 23.99181427 0.7857932 32.1015625 8.43359375 C35.31717579 12.26759421 36.01216333 15.50448449 35.89208984 20.53320312 C35.34068576 26.14200074 33.83557139 31.55286158 32.4375 37 C31.95312952 38.93001501 31.46876717 40.86003246 30.98588562 42.79042053 C30.50310617 44.7180664 30.01718803 46.64492529 29.53125 48.57177734 C28.70347602 51.93148714 27.92961568 55.29627601 27.1875 58.67578125 C26.97375732 59.63581055 26.76001465 60.59583984 26.53979492 61.58496094 C26.148852 63.35537617 25.76818465 65.1281035 25.3996582 66.90332031 C24.37488356 71.45393545 23.50193256 74.30597823 19.625 77.25 C16.47989907 78.82255046 13.13734555 78.47572668 9.6875 78.5 C8.95853516 78.520625 8.22957031 78.54125 7.47851562 78.5625 C2.16413589 78.60146887 2.16413589 78.60146887 -0.31640625 76.984375 C-1.47858226 75.08029328 -1.99710273 73.44180418 -2.375 71.25 C-2.99246094 71.64832031 -3.60992187 72.04664063 -4.24609375 72.45703125 C-14.49525206 78.86860517 -23.08800448 81.73891112 -35.375 80.25 C-42.52903248 77.97158599 -46.90443226 74.57349355 -50.625 68.0625 C-52.51217621 60.98558921 -51.8171228 54.29684573 -48.81640625 47.63671875 C-43.76815814 39.27769546 -35.47884148 34.97906918 -26.375 32.25 C-14.92294025 29.46468081 -3.07833079 28.41348903 8.625 27.25 C8.625 25.27 8.625 23.29 8.625 21.25 C-0.06448943 15.84320658 -10.12426265 16.09964257 -19.8984375 17.8984375 C-22.7514651 18.60993327 -25.55587523 19.41678242 -28.375 20.25 C-31.14453125 20.91015625 -31.14453125 20.91015625 -33.375 21.25 C-33.705 20.92 -34.035 20.59 -34.375 20.25 C-34.32542465 14.47447218 -33.34870697 9.20617828 -30.375 4.25 C-21.62848971 -1.1050063 -9.90202475 0.0444037 0 0 Z " fill="#295898" transform="translate(171.375,127.75)"/>
<path d="M0 0 C1.14210938 -0.020625 2.28421875 -0.04125 3.4609375 -0.0625 C14.06107018 -0.11068242 24.54030716 0.85336613 32.625 8.25 C36.0083427 13.05216384 36.10535253 17.56443541 35.625 23.25 C34.73094037 28.29423976 33.56367094 33.26863667 32.375 38.25 C32.0496559 39.63972458 31.72503396 41.02961841 31.40112305 42.41967773 C30.76647659 45.13876155 30.12665222 47.85655587 29.48388672 50.57373047 C28.76287857 53.65984209 28.07261739 56.74859662 27.41015625 59.84765625 C27.2409668 60.62302734 27.07177734 61.39839844 26.89746094 62.19726562 C26.47455541 64.14209232 26.05918032 66.08855251 25.64453125 68.03515625 C24.49783357 71.65098841 22.92423497 74.24536867 20.625 77.25 C17.35478041 78.88510979 13.77766249 78.47628299 10.1875 78.5 C9.41083984 78.520625 8.63417969 78.54125 7.83398438 78.5625 C2.10876256 78.60195028 2.10876256 78.60195028 -0.12133789 76.97949219 C-1.375 75.25 -1.375 75.25 -1.375 71.25 C-2.30441406 71.73210937 -3.23382813 72.21421875 -4.19140625 72.7109375 C-5.43993755 73.34928433 -6.68864495 73.98728678 -7.9375 74.625 C-8.54658203 74.94210938 -9.15566406 75.25921875 -9.78320312 75.5859375 C-18.46627751 79.99638798 -28.20531955 82.37222541 -37.81640625 79.52734375 C-43.34363962 76.93678086 -48.12560041 73.05108316 -50.375 67.25 C-51.16854144 59.24076776 -51.66654343 50.81339809 -46.375 44.25 C-35.53004022 32.22561488 -18.85446693 30.1388532 -3.625 28.5625 C-2.4390625 28.43294922 -1.253125 28.30339844 -0.03125 28.16992188 C2.85345412 27.85586135 5.73873804 27.5493422 8.625 27.25 C8.81784528 24.32569621 8.81784528 24.32569621 8.625 21.25 C1.59676006 15.7413795 -7.88515584 16.64727273 -16.375 17.25 C-20.48287604 17.97387437 -24.38527587 19.05432181 -28.375 20.25 C-31.140625 20.91015625 -31.140625 20.91015625 -33.375 21.25 C-33.705 20.92 -34.035 20.59 -34.375 20.25 C-34.3319123 14.53010809 -33.81830606 8.95585161 -30.375 4.25 C-21.48040529 -1.01414789 -10.00514564 0.04486612 0 0 Z " fill="#3371C5" transform="translate(416.375,127.75)"/>
<path d="M0 0 C0.82048828 -0.02900391 1.64097656 -0.05800781 2.48632812 -0.08789062 C3.28103516 -0.09626953 4.07574219 -0.10464844 4.89453125 -0.11328125 C5.6213208 -0.12786377 6.34811035 -0.14244629 7.09692383 -0.1574707 C10.21615826 0.54374689 11.27863054 1.76193196 13.1875 4.3125 C13.9392984 6.95164847 14.47381324 9.34559698 14.890625 12.03515625 C15.01814148 12.77704697 15.14565796 13.51893768 15.27703857 14.28330994 C15.6789275 16.64495876 16.05815612 19.00963689 16.4375 21.375 C16.70691646 22.96964107 16.97773503 24.56404593 17.25 26.15820312 C19.1875 37.65603861 19.1875 37.65603861 19.1875 41.3125 C19.8475 41.3125 20.5075 41.3125 21.1875 41.3125 C21.44039795 40.62406006 21.6932959 39.93562012 21.95385742 39.22631836 C23.36609322 35.89066939 25.09714703 32.80945351 26.92578125 29.69140625 C27.28842575 29.06902573 27.65107025 28.4466452 28.02470398 27.80540466 C28.7903303 26.49415109 29.55776553 25.18395224 30.3269043 23.87475586 C31.49214487 21.88839051 32.64770724 19.89661408 33.80273438 17.90429688 C34.55149888 16.62465784 35.30082974 15.34534999 36.05078125 14.06640625 C36.39055496 13.47871964 36.73032867 12.89103302 37.08039856 12.28553772 C42.88979782 2.46135109 42.88979782 2.46135109 47.1875 0.3125 C48.78197464 0.22849471 50.37990545 0.20522533 51.9765625 0.21484375 C52.91757812 0.21806641 53.85859375 0.22128906 54.828125 0.22460938 C55.81296875 0.23298828 56.7978125 0.24136719 57.8125 0.25 C58.80507813 0.25451172 59.79765625 0.25902344 60.8203125 0.26367188 C63.2761016 0.27547855 65.73177104 0.291946 68.1875 0.3125 C67.65557426 4.83303764 66.53577231 7.93438387 64.1875 11.8203125 C63.55642334 12.87492676 62.92534668 13.92954102 62.27514648 15.01611328 C61.57946651 16.15669887 60.88357844 17.29715755 60.1875 18.4375 C59.46542588 19.63607359 58.74416836 20.83513948 58.02368164 22.03466797 C56.133765 25.17536212 54.23209015 28.3087516 52.32647705 31.43994141 C50.85984298 33.85119124 49.39787611 36.26525283 47.93591309 38.67933655 C45.46114346 42.76552222 42.98372544 46.85007403 40.49853516 50.92993164 C35.04311116 59.88628536 29.63913376 68.87218302 24.27124023 77.88134766 C22.58774771 80.69858176 20.88880047 83.50599308 19.1875 86.3125 C18.59098633 87.31909668 17.99447266 88.32569336 17.37988281 89.36279297 C16.78272461 90.34521973 16.18556641 91.32764648 15.5703125 92.33984375 C15.04066895 93.222771 14.51102539 94.10569824 13.96533203 95.01538086 C11.49162153 98.21163767 9.00715178 100.03333864 4.9675293 100.65307617 C4.23961182 100.63736572 3.51169434 100.62165527 2.76171875 100.60546875 C1.96572266 100.59580078 1.16972656 100.58613281 0.34960938 100.57617188 C-0.46701172 100.55103516 -1.28363281 100.52589844 -2.125 100.5 C-3.37893555 100.47969727 -3.37893555 100.47969727 -4.65820312 100.45898438 C-6.70991498 100.42381217 -8.76129275 100.37001048 -10.8125 100.3125 C-11.67255413 97.41320805 -12.06393956 95.88378411 -10.82446289 93.06762695 C-10.0625061 91.94553833 -10.0625061 91.94553833 -9.28515625 90.80078125 C-8.74052734 89.95966797 -8.19589844 89.11855469 -7.63476562 88.25195312 C-6.47182182 86.51592714 -5.30264725 84.78405714 -4.12695312 83.05664062 C-3.58103516 82.20908203 -3.03511719 81.36152344 -2.47265625 80.48828125 C-1.96355713 79.73458252 -1.45445801 78.98088379 -0.92993164 78.2043457 C2.24700409 69.98262762 -0.4420737 60.46945425 -2 52.11328125 C-2.22196045 50.87885788 -2.4439209 49.64443451 -2.67260742 48.37260437 C-3.25849162 45.11756199 -3.85109852 41.863855 -4.44812012 38.61083984 C-5.28983582 34.02355976 -6.1255799 29.43525164 -6.95239258 24.84526062 C-7.39148416 22.40894981 -7.83637432 19.97367492 -8.2878418 17.53962708 C-9.27548847 12.07187498 -10.21358898 6.87416885 -9.8125 1.3125 C-7.65176863 -0.84823137 -2.98285989 0.03465755 0 0 Z " fill="#275797" transform="translate(220.8125,127.6875)"/>
<path d="M0 0 C1.25296875 0.00580078 1.25296875 0.00580078 2.53125 0.01171875 C3.39492188 0.03621094 4.25859375 0.06070313 5.1484375 0.0859375 C6.45554687 0.08787109 6.45554687 0.08787109 7.7890625 0.08984375 C14.24224882 0.17974882 14.24224882 0.17974882 16.5234375 2.4609375 C16.75431548 10.52611132 14.81132873 18.49463333 12.8984375 26.2734375 C12.3531707 28.55965852 11.80894516 30.84612808 11.265625 33.1328125 C10.98041992 34.32455078 10.69521484 35.51628906 10.40136719 36.74414062 C9.04088283 42.50387752 7.75475355 48.28006222 6.46459961 54.05584717 C5.73385658 57.31497321 4.99109018 60.57133633 4.25 63.828125 C3.11287135 68.82767944 2.00691743 73.83265564 0.921875 78.84375 C0.41478731 81.11214132 -0.09298878 83.38037889 -0.6015625 85.6484375 C-0.81876953 86.68750244 -1.03597656 87.72656738 -1.25976562 88.79711914 C-2.19782662 92.89767708 -2.9447949 95.79104845 -5.58203125 99.11328125 C-9.67181481 101.01743149 -13.20962303 100.97102824 -17.6640625 100.8359375 C-18.48326172 100.83464844 -19.30246094 100.83335937 -20.14648438 100.83203125 C-26.19507754 100.74242246 -26.19507754 100.74242246 -28.4765625 98.4609375 C-28.75969259 90.79502015 -26.42673548 82.82728686 -24.7890625 75.3984375 C-24.522146 74.17036377 -24.25522949 72.94229004 -23.98022461 71.67700195 C-22.03593913 62.80816113 -19.97205188 53.97158958 -17.80249023 45.15527344 C-16.33676846 39.17052054 -14.96912017 33.17386989 -13.68359375 27.1484375 C-13.37581101 25.72301102 -13.0677876 24.29763648 -12.75952148 22.87231445 C-12.30632901 20.77649877 -11.85811084 18.68030749 -11.42654419 16.57992554 C-11.02674831 14.63515476 -10.60748987 12.69441614 -10.1875 10.75390625 C-9.95337402 9.6352417 -9.71924805 8.51657715 -9.47802734 7.36401367 C-7.76307027 2.39264492 -5.33489652 -0.05750998 0 0 Z " fill="#3270C5" transform="translate(473.4765625,106.5390625)"/>
<path d="M0 0 C0.73412109 -0.01546875 1.46824219 -0.0309375 2.22460938 -0.046875 C7.79654226 -0.00732268 11.11777541 1.30293032 15.6875 4.5 C18.4101836 8.5840254 18.41776508 11.70666431 17.6875 16.5 C15.45185168 22.58834323 11.59369923 25.80402071 5.8671875 28.6015625 C-0.36915374 31.17209742 -7.64918971 31.08852591 -14.3125 30.5 C-16.3125 28.5 -16.3125 28.5 -16.39453125 26.609375 C-14.19125983 7.32276724 -14.19125983 7.32276724 -10.7265625 2.1171875 C-7.26611697 -0.20097504 -4.02105942 -0.08341005 0 0 Z " fill="#F2F3F4" transform="translate(86.3125,125.5)"/>
<path d="M0 0 C0.69931641 -0.01611328 1.39863281 -0.03222656 2.11914062 -0.04882812 C7.79342521 -0.05413616 11.51288868 1.34470985 16.03515625 4.671875 C18.57069161 8.28178976 17.70209258 13.13143527 17.1875 17.3125 C15.86087656 21.63192273 13.63627733 23.99317767 9.9375 26.625 C2.40894741 30.33356819 -5.50223683 31.18188138 -13.8125 30.3125 C-15.8125 28.3125 -15.8125 28.3125 -15.9296875 25.73046875 C-15.32277035 17.63497704 -14.09763819 9.80034946 -10.8125 2.3125 C-7.12391494 -0.1465567 -4.26767814 -0.01934578 0 0 Z " fill="#F3F4F5" transform="translate(333.8125,125.6875)"/>
<path d="M0 0 C-0.38353656 5.83240079 -1.05693267 10.82426089 -4 16 C-6.875 18.3125 -6.875 18.3125 -10 20 C-10.7425 20.4125 -11.485 20.825 -12.25 21.25 C-17.71387711 22.7401483 -22.93856827 22.9482586 -28.125 20.5625 C-30.48484548 17.33737784 -30.84623675 15.20380288 -30.60546875 11.25390625 C-29.68042287 7.81034836 -27.95708694 6.21409049 -25.12109375 4.1484375 C-21.53544118 2.20703445 -18.01513607 1.51699913 -14 1 C-13.20851563 0.89042969 -12.41703125 0.78085938 -11.6015625 0.66796875 C-7.72153779 0.18457697 -3.91531433 -0.12630046 0 0 Z " fill="#F1F2F4" transform="translate(422,170)"/>
<path d="M0 0 C-0.28484846 1.73030291 -0.57819938 3.45920714 -0.875 5.1875 C-1.03742188 6.15042969 -1.19984375 7.11335937 -1.3671875 8.10546875 C-2.36285481 12.65972479 -3.07136717 15.27773002 -6.8125 18.1875 C-13.06812991 21.74462289 -17.81326861 22.69511009 -25 22 C-28.125 21.125 -28.125 21.125 -30 19 C-30.8564102 15.48127114 -30.84865432 12.52054662 -30 9 C-27.23493947 4.79676557 -23.42084872 2.85906937 -18.625 1.6875 C-17.08817106 1.42786508 -15.54584405 1.19904681 -14 1 C-13.20851562 0.89042969 -12.41703125 0.78085938 -11.6015625 0.66796875 C-7.70795635 0.18288493 -3.92639593 -0.04118597 0 0 Z " fill="#F1F2F3" transform="translate(177,170)"/>
<path d="M0 0 C0.33 0 0.66 0 1 0 C1 8.91 1 17.82 1 27 C-7.91 27 -16.82 27 -26 27 C-23.21890197 25.60945099 -20.5521344 24.41010061 -17.6875 23.25 C-9.81434688 19.72779992 -5.08478417 15.07624399 -2 7 C-1.23093165 4.67521625 -0.59462352 2.37849407 0 0 Z " fill="#000000" transform="translate(511,293)"/>
<path d="M0 0 C1.39054901 2.78109803 2.58989939 5.4478656 3.75 8.3125 C7.27220008 16.18565312 11.92375601 20.91521583 20 24 C22.32478375 24.76906835 24.62150593 25.40537648 27 26 C27 26.33 27 26.66 27 27 C18.09 27 9.18 27 0 27 C0 18.09 0 9.18 0 0 Z " fill="#000000" transform="translate(0,293)"/>
<path d="M0 0 C8.91 0 17.82 0 27 0 C27 8.91 27 17.82 27 27 C25.60945099 24.21890197 24.41010061 21.5521344 23.25 18.6875 C19.72779992 10.81434688 15.07624399 6.08478417 7 3 C4.67521625 2.23093165 2.37849407 1.59462352 0 1 C0 0.67 0 0.34 0 0 Z " fill="#000000" transform="translate(485,0)"/>
<path d="M0 0 C6.27 0 12.54 0 19 0 C18.01 0.66 17.02 1.32 16 2 C8.97558887 6.70291065 4.64869399 12.02695902 0 19 C0 12.73 0 6.46 0 0 Z " fill="#000000" transform="translate(0,0)"/>
</svg>
